<?xml version="1.0" encoding="UTF-8"?>
<svg version="1.1" xmlns="http://www.w3.org/2000/svg" width="32" height="32">
<path d="M0 0 C1.05960938 0.45503906 2.11921875 0.91007813 3.2109375 1.37890625 C4.00757812 1.72824219 4.80421875 2.07757813 5.625 2.4375 C5.625 3.4275 5.625 4.4175 5.625 5.4375 C4.635 5.7675 3.645 6.0975 2.625 6.4375 C2.625 10.7275 2.625 15.0175 2.625 19.4375 C1.965 19.4375 1.305 19.4375 0.625 19.4375 C0.625 15.8075 0.625 12.1775 0.625 8.4375 C-0.58061184 9.42017859 -0.58061184 9.42017859 -0.47265625 11.28515625 C-0.46105469 12.01605469 -0.44945313 12.74695313 -0.4375 13.5 C-0.416875 14.799375 -0.39625 16.09875 -0.375 17.4375 C-5.13638533 20.2943312 -8.93567385 21.27930048 -14.375 20.4375 C-17.875 18.9375 -17.875 18.9375 -20.375 17.4375 C-20.375 14.7975 -20.375 12.1575 -20.375 9.4375 C-22.355 8.4475 -24.335 7.4575 -26.375 6.4375 C-26.375 5.1175 -26.375 3.7975 -26.375 2.4375 C-24.17406488 1.39733203 -21.96661931 0.38072969 -19.75 -0.625 C-19.13253906 -0.91955078 -18.51507812 -1.21410156 -17.87890625 -1.51757812 C-11.01742643 -4.58718752 -6.61192274 -2.86516652 0 0 Z M-10.375 3.4375 C-6.375 4.4375 -6.375 4.4375 -6.375 4.4375 Z M-6.375 4.4375 C-6.375 4.7675 -6.375 5.0975 -6.375 5.4375 C-4.065 5.4375 -1.755 5.4375 0.625 5.4375 C0.625 5.1075 0.625 4.7775 0.625 4.4375 C-1.685 4.4375 -3.995 4.4375 -6.375 4.4375 Z " fill="#9683D7" transform="translate(26.375,7.5625)"/>
</svg>
