<?xml version="1.0" encoding="UTF-8"?>
<svg version="1.1" xmlns="http://www.w3.org/2000/svg" width="32" height="32">
<path d="M0 0 C2.67578125 1.3046875 2.67578125 1.3046875 5.3125 2.875 C6.19550781 3.38804687 7.07851563 3.90109375 7.98828125 4.4296875 C8.65214844 4.94789063 9.31601562 5.46609375 10 6 C10 6.99 10 7.98 10 9 C7.55078125 10.89453125 7.55078125 10.89453125 4.3125 12.8125 C3.25675781 13.45832031 2.20101563 14.10414062 1.11328125 14.76953125 C-2 16 -2 16 -4.59375 15.36328125 C-5.3878125 14.91339844 -6.181875 14.46351562 -7 14 C-8.21623047 13.36191406 -8.21623047 13.36191406 -9.45703125 12.7109375 C-10.62298828 12.04964844 -10.62298828 12.04964844 -11.8125 11.375 C-12.60269531 10.92898438 -13.39289062 10.48296875 -14.20703125 10.0234375 C-14.79871094 9.68570312 -15.39039063 9.34796875 -16 9 C-16 8.01 -16 7.02 -16 6 C-13.76953125 4.140625 -13.76953125 4.140625 -10.8125 2.25 C-9.84957031 1.61578125 -8.88664063 0.9815625 -7.89453125 0.328125 C-4.53590481 -1.21294516 -3.43002664 -1.22656016 0 0 Z " fill="#AA7ECD" transform="translate(19,2)"/>
<path d="M0 0 C3.36023704 0.39072524 5.6361626 0.76350569 8.5 2.625 C10.96337067 4.26096501 10.96337067 4.26096501 14 3.875 C17.07205951 2.97898264 19.27876866 1.64706107 22 0 C23.32 0 24.64 0 26 0 C26 0.99 26 1.98 26 3 C23.5859375 4.89453125 23.5859375 4.89453125 20.375 6.8125 C18.80878906 7.78123047 18.80878906 7.78123047 17.2109375 8.76953125 C14 10 14 10 10.875 9.3515625 C8.37440464 8.17601088 5.97767058 7.0092572 3.625 5.5625 C2.93664062 5.15128906 2.24828125 4.74007813 1.5390625 4.31640625 C1.03117188 3.88199219 0.52328125 3.44757812 0 3 C0 2.01 0 1.02 0 0 Z " fill="#AA80CC" transform="translate(3,14)"/>
<path d="M0 0 C3.48436474 0.40992526 5.10413018 1.07592825 8 3.1875 C10.80366617 5.35136007 10.80366617 5.35136007 13.5625 4.4375 C15.25543952 3.43909977 16.92104455 2.39345847 18.5625 1.3125 C21 0 21 0 23.3125 0.3125 C23.869375 0.539375 24.42625 0.76625 25 1 C23.75737548 4.72787356 22.54939866 5.23912389 19.25 7.25 C18.38890625 7.79140625 17.5278125 8.3328125 16.640625 8.890625 C13.45738193 10.2279638 12.23501623 10.11534881 9 9 C6.32421875 7.58984375 6.32421875 7.58984375 3.6875 5.9375 C2.80449219 5.38964844 1.92148438 4.84179688 1.01171875 4.27734375 C0.34785156 3.85582031 -0.31601563 3.43429688 -1 3 C-0.67 2.01 -0.34 1.02 0 0 Z " fill="#AA7CCD" transform="translate(4,20)"/>
</svg>
