<?xml version="1.0" encoding="UTF-8"?>
<svg version="1.1" xmlns="http://www.w3.org/2000/svg" width="32" height="32">
<path d="M0 0 C8.58 0 17.16 0 26 0 C26 2.97 26 5.94 26 9 C27.96147874 10.38938077 29.96166576 11.7260411 32 13 C32.375 16.75 32.375 16.75 32 20 C31.34 19.67 30.68 19.34 30 19 C30 18.34 30 17.68 30 17 C29.34 17.33 28.68 17.66 28 18 C28 19.98 28 21.96 28 24 C25.64653604 25.17673198 24.1193967 25.16623866 21.5 25.1875 C20.7059375 25.20167969 19.911875 25.21585938 19.09375 25.23046875 C17 25 17 25 15 23 C14.95936168 21.33382885 14.957279 19.66611905 15 18 C14.67 17.67 14.34 17.34 14 17 C14 17.99 14 18.98 14 20 C9.38 20 4.76 20 0 20 C0 13.4 0 6.8 0 0 Z M3 3 C3.33 4.32 3.66 5.64 4 7 C4 6.01 4 5.02 4 4 C4.66 4 5.32 4 6 4 C6.33 4.99 6.66 5.98 7 7 C7 5.68 7 4.36 7 3 C5.68 3 4.36 3 3 3 Z M10 3 C10.33 4.32 10.66 5.64 11 7 C11 6.01 11 5.02 11 4 C11.99 4 12.98 4 14 4 C14.33 4.99 14.66 5.98 15 7 C15 5.68 15 4.36 15 3 C13.35 3 11.7 3 10 3 Z M20 8 C24 9 24 9 24 9 Z M3 10 C3 11.65 3 13.3 3 15 C4.32 15 5.64 15 7 15 C7 13.35 7 11.7 7 10 C5.68 10 4.36 10 3 10 Z M10 13 C11 15 11 15 11 15 Z " fill="#8684C6" transform="translate(0,7)"/>
<path d="M0 0 C0.66 0 1.32 0 2 0 C2 0.66 2 1.32 2 2 C2.66 2 3.32 2 4 2 C4 1.34 4 0.68 4 0 C4.99 0 5.98 0 7 0 C7 0.66 7 1.32 7 2 C7.66 2 8.32 2 9 2 C9 1.34 9 0.68 9 0 C9.99 0 10.98 0 12 0 C12 0.66 12 1.32 12 2 C12.66 2 13.32 2 14 2 C14 1.34 14 0.68 14 0 C14.99 0 15.98 0 17 0 C17 0.66 17 1.32 17 2 C17.66 2 18.32 2 19 2 C19 1.34 19 0.68 19 0 C19.598125 0.185625 20.19625 0.37125 20.8125 0.5625 C23.16408762 1.22093687 23.16408762 1.22093687 26 0 C26 1.98 26 3.96 26 6 C17.42 6 8.84 6 0 6 C0 4.02 0 2.04 0 0 Z " fill="#8583C6" transform="translate(0,0)"/>
<path d="M0 0 C0.66 0 1.32 0 2 0 C2 0.99 2 1.98 2 3 C1.34 3 0.68 3 0 3 C0 2.01 0 1.02 0 0 Z " fill="#8583C5" transform="translate(4,18)"/>
</svg>
