<svg id="SvgjsSvg1001" width="288" height="288" xmlns="http://www.w3.org/2000/svg" version="1.1" xmlns:xlink="http://www.w3.org/1999/xlink" xmlns:svgjs="http://svgjs.com/svgjs"><defs id="SvgjsDefs1002"></defs><g id="SvgjsG1008"><svg xmlns="http://www.w3.org/2000/svg" viewBox="0 0 24 24" width="288" height="288"><path fill="none" fill-rule="evenodd" stroke="#ffffff" stroke-linecap="round" stroke-linejoin="round" d="M20,8 C19,3.66666667 16.1666667,1.5 11.5,1.5 C5.5,1.5 3,5.5 3,11.5 C3,17.5 6,21.5 11.5,21.5 C17,21.5 19,18 19,15.5 C19,13 17,10.5 12.5,10.5 C10,10.5 8.5,12 8.5,13.5 C8.5,15 10,16 12,16 C14,16 15.5,14 15.5,11.5 C15.5,9 14.5,6.5 12,6.5 C10.3333333,6.5 9.16666667,7.16666667 8.5,8.5" class="svgStroke colorStroke000000-0 selectable"></path></svg></g></svg>